<svg id="Layer_2" data-name="Layer 2" xmlns="http://www.w3.org/2000/svg" viewBox="0 0 258.2 206.7"><circle cx="128.9" cy="184.3" r="22.4"/><rect x="109.8" width="38.9" height="149.11" rx="19.4"/><path d="M104.3,82.4A179.3,179.3,0,0,0,24,126.1a10,10,0,0,0-1.3,13.1l.4.6a11.7,11.7,0,0,0,12.8,3.1A186.2,186.2,0,0,1,70.7,118a188.1,188.1,0,0,1,38.4-16.1,9.9,9.9,0,0,0,7-12l-.3-.8A10.7,10.7,0,0,0,104.3,82.4Z" transform="translate(-20.8 -49.6)"/><rect x="81.5" y="181.2" width="35" height="20.97" rx="8.4" transform="translate(-118.3 53) rotate(-38.3)"/><path d="M276.5,127.9a180.8,180.8,0,0,0-37-27.3,183,183,0,0,0-43-17c-4.9-1.2-10.1,1.2-11.8,5.9l-.3.7a11.6,11.6,0,0,0,4.3,12.4,191.9,191.9,0,0,1,39.7,16.1,181.9,181.9,0,0,1,34.1,23.8,10,10,0,0,0,13.9-.6l.5-.6A11,11,0,0,0,276.5,127.9Z" transform="translate(-20.8 -49.6)"/><rect x="182.3" y="180.8" width="35" height="20.97" rx="8.4" transform="translate(141 -132.3) rotate(38.4)"/><path d="M102,129a102.7,102.7,0,0,0-23,9,104.7,104.7,0,0,0-25.9,19.7,8.4,8.4,0,0,0-2.3,7A10.1,10.1,0,0,0,53,170a11.2,11.2,0,0,0,8.7,4.2,5.4,5.4,0,0,0,3.6-1.4A111.6,111.6,0,0,1,111,148a10.8,10.8,0,0,0-9-19Z" transform="translate(-20.8 -49.6)"/><path d="M242,157a100.6,100.6,0,0,0-19.3-15.4,101.8,101.8,0,0,0-30-12.6,8.1,8.1,0,0,0-7.2,1.4A9.9,9.9,0,0,0,182,135a11.5,11.5,0,0,0,.7,9.6,5.1,5.1,0,0,0,3,2.4,116,116,0,0,1,25,11.8A108.1,108.1,0,0,1,230,174.3,10.8,10.8,0,0,0,242,157Z" transform="translate(-20.8 -49.6)"/></svg>
